<svg width="550" height="563" viewBox="0 0 550 563" fill="none" xmlns="http://www.w3.org/2000/svg">
<path d="M220 3.00049C183.093 9.60362 108.729 42.451 88.888 120.693M18.4614 204.924V329.924C36.3076 493.308 156.923 546.719 215 553.001C227.923 423.154 133.461 375.308 84.9999 368.385V224.539M275.385 559.154V423.001M275.385 423.001C261.923 396.334 224.923 335.462 184.615 305.308C134.231 267.616 84.9999 253.385 84.9999 224.539M275.385 423.001V268.385C257.977 222.488 196.306 128.693 88.888 120.693M84.9999 224.539V142.231C85.8397 134.697 87.1561 127.522 88.888 120.693" stroke="#C6A66A" stroke-width="6" stroke-linecap="round"></path>
<path d="M330.769 3.00049C367.676 9.60362 442.041 42.451 461.881 120.693M532.308 204.924V329.924C514.462 493.308 393.846 546.719 335.769 553.001C322.846 423.154 417.308 375.308 465.769 368.385V224.539M275.385 559.154V423.001M275.385 423.001C288.846 396.334 325.846 335.462 366.154 305.308C416.539 267.616 465.769 253.385 465.769 224.539M275.385 423.001V268.385C292.793 222.488 354.463 128.693 461.881 120.693M465.769 224.539V142.231C464.93 134.697 463.613 127.522 461.881 120.693" stroke="#C6A66A" stroke-width="6" stroke-linecap="round"></path>
<circle cx="18.0769" cy="187.231" r="15.0769" stroke="#C6A66A" stroke-width="6"></circle>
<circle cx="531.923" cy="187.231" r="15.0769" stroke="#C6A66A" stroke-width="6"></circle>
<path d="M272.693 88.3082C281.019 88.3083 287.77 95.0587 287.77 103.385C287.77 111.712 281.019 118.462 272.693 118.463C264.366 118.463 257.616 111.712 257.615 103.385C257.615 95.0586 264.366 88.3082 272.693 88.3082Z" stroke="#C6A66A" stroke-width="6"></path>
<line x1="274.693" y1="266.892" x2="272.42" y2="117.661" stroke="#C6A66A" stroke-width="6"></line>
</svg>
